<?xml version="1.0" encoding="UTF-8"?>
<svg id="Layer_1" xmlns="http://www.w3.org/2000/svg" version="1.1" viewBox="0 0 793.6 793.6">
  <defs>
    <style>
      .st0 {
        fill: #4285f3;
      }
    </style>
  </defs>
  <path class="st0" d="M793.6,396.8c0,219.15-177.65,396.8-396.8,396.8S0,615.95,0,396.8,177.65,0,396.8,0s396.8,177.65,396.8,396.8ZM470.47,372.86l22.8-19.61c11-9.46,17.81-21.37,23.16-34.78,5.61-14.05,6.95-28.06,2.8-42.83l-10.06-35.82c-1.12-3.99-.63-7.41,2.27-10.43,3.8-3.96,7.79-7.54,12.24-10.98l41.02-31.67c3.72-2.87,19.31-15.03,22.32-13.19.78.48,1.32,2.08,1.29,3.47-.48,21.16-9.29,22.66-9.98,47.61l-1.8,64.91-.7,71.94c-.09,8.95.26,17.51,1.82,26.05,3.38,18.47,27.51,13.94,30.71,11.6,11.25-8.22,9.86-45.22,9.2-58.58l-2.64-53.28-1.97-77.52c-.27-10.69-21.94-37.59.62-58.52,5-4.64,10.49-8.85,15.34-15.22l-108.39-1.28-182.37.02-126.65,110.48c-15.35,13.39-30.22,25.6-45.27,40.29,11.28,1.67,20.72,1.28,31.05,1.35l78.79.55c2.29,14.62,4.79,27.77,9.62,40.92,9.72,26.47,29,46.52,55.31,56.71,15.49,6,31.19,8.69,47.81,10.04,4.17.34,8.44.41,12.28,2.38-2.36,8.34-4.75,16.2-3.84,24.69,1.59,14.86,7.48,28.36,15.97,40.91-37.43,1.98-74.08,5.39-107.22,21.72-28.27,13.93-50.68,37.39-59.76,68.13-2.89,9.79-1.59,21.48.04,31.31,1.73,10.45,8.37,19.09,14.98,26.8,8.7,10.14,19.09,17.63,30.65,24.23,29.33,16.74,61.85,23.67,95.66,23.03,27.04-.51,52.8-3.42,78.01-12.85,35.74-13.37,67.32-37.52,74.79-76.96,3.95-20.88,1.82-41.74-5.09-61.62-13.17-37.92-47.58-46.21-73.8-75.23-9.11-10.08-13.23-23.71-8.45-36.67,3.3-8.93,10.02-15.71,17.44-22.09Z"/>
  <path class="st0" d="M433.99,633.11c-15.59,2.13-30.27,3.65-45.47,2.32-18.53-1.62-36.3-7.79-52.41-16.33-11.5-6.09-20.98-14.02-28.23-24.81-16.2-24.11-14.99-56.47,3.09-79.33,7.49-9.48,17.21-16.02,28.13-21.27,28.51-13.7,60.71-17.88,91.86-11.46,21.14,4.35,39.72,15.24,55.3,29.5,8.93,8.17,13.4,17.89,16.94,29.1,8.6,27.23.28,55.41-22.93,72.65-13.28,9.87-28.92,17.24-46.27,19.62Z"/>
  <path class="st0" d="M449.99,366.76c-27.09,29.06-65.02,12.25-88.03-12.63-20.31-21.94-33.16-49.46-34.41-79.5-.74-17.56,2.35-34.08,11.49-48.71s23.91-23.69,41.18-24.81c13.26-.86,26.68,1.39,38.06,8.93,35.26,23.38,55.97,64.54,52.86,106.71-1.41,19.13-8.44,36.37-21.14,50Z"/>
</svg>
