<?xml version="1.0" encoding="UTF-8"?>
<svg id="Layer_1" xmlns="http://www.w3.org/2000/svg" version="1.1" viewBox="0 0 701.92 702.33">
  <defs>
    <style>
      .st0 {
        fill: #2868b1;
      }
    </style>
  </defs>
  <path class="st0" d="M364.91.25c9.36.5,18.74,1.19,27.99,2.49l26.14,3.68c.78.11,2.19,0,2.85.34,7.25,3.8,16.29,3.36,23.91,5.92l27.13,9.14c19.18,6.46,37.88,15.42,55.36,25.77,19.5,11.54,37.17,25.91,54.71,40.19.83.67,1.85,1.47,2.81,1.83,7.75,8.85,16.53,16.98,25.1,25.09.35.33.59.8.9,1.18,13.48,16.38,26.45,32.99,37.89,50.93.25.39.66.66.95,1.01.08.3-.07.74.08,1,10.83,18.21,21.34,36.8,28.09,56.86l9.81,29.14,4.26,18c.55,2.31,1.55,5.56,1.92,7.92l4.38,27.4c1.45,9.07,1.69,18.39,2.14,27.59s.79,18.23.42,27.3-2.16,18.39-1.91,27.6c.02.7-.77,1.46-.79,2.2-.02.66-.1,1.35-.2,2l-3.19,21.92c-2.78,19.12-8.08,38.01-15.57,55.9l-11.34,27.1c-.9,2.15-3.64,4.67-3.3,7.31-4.33,6.53-7.47,13.84-11.43,20.64-11.45,19.64-25.35,37.35-39.31,55.16-.95,1.21-2.91,3.32-4.07,4.41-7.98,7.53-16.34,15.46-23.47,23.68-1.81.43-3.09,2.98-4.38,3.98-18.17,14.08-36.17,28.11-56.06,39.86-5.85,3.45-12.65,5.6-17.78,10.08-3.28-.39-6.34,2.91-9.08,4.02l-26.91,10.96c-8.74,3.56-17.83,6.47-26.97,8.97-3.65,1-8.15,2.29-11.76,3.12l-15.36,3.53-28.19,4.51-25.96,1.78c-9.45.65-19.43.94-28.84.1l-28.78-2.56-26.23-4.5-9-1.94h-3c-.33,0-.67-.03-1,0-.32-.9-1.21-1.25-2.33-1.53l-10.67-2.66-28.91-9.58-30.24-13.12c-.31-.14-.8-.21-1.14-.21-6.84-5.28-15.35-8.2-22.72-12.84-17.92-11.29-35.33-23.28-51.4-37.7-1.5-1.35-2.98-2.12-4.31-2.91-.56-.34-1.11-1-1.57-1.47-8.48-8.83-17.11-18.25-26.3-26.2-.29-.61-1.1-1.42-1.51-1.97-12.84-16.87-26.36-33.2-36.95-51.7s-20.38-37.17-27.79-57.06c-3.26-8.75-6.78-18.28-9.13-27.25-4.82-18.38-9.47-37.06-10.9-55.94l-2.04-26.86.1-22.01c.94.05,1.05-1.01.05-1,.59-1.25-.13-2.69-.03-3.92l2.46-28.88c1.53-17.94,5.57-35.82,10.57-53.2,2.76-9.6,5.97-19.87,9.77-29.13,7.56-18.43,15.95-36.65,25.97-53.87,11.28-19.4,25.82-36.49,39.44-54.19.43-.56,1.4-1.12,1.58-1.89,2.65-1.89,5.06-4.58,7.73-7.34,22.32-23.1,47.08-43.04,74.35-59.44,17.13-10.3,35.51-18.45,53.91-26.16,9.54-4,20.15-6.91,30.07-9.84,16.97-5.01,34.6-7.63,52.06-10.22,9.56-1.42,19.25-1.57,28.86-2.12s18.66-.85,28.01-.34ZM248.09,177.86c0-27.46-22.26-49.73-49.73-49.73s-49.73,22.26-49.73,49.73,22.26,49.73,49.73,49.73,49.73-22.26,49.73-49.73ZM440.99,334.66c29.14,2.73,37.05,32.19,37.06,57.28l.07,145.73c0,3.17,1.79,4.89,4.84,4.89l76.51-.05c2.82,0,4.55-1.96,4.55-4.76l.07-114.86-.51-52.01c-.19-19.36-3.47-37.78-9.73-55.94-9.68-28.07-32.23-47.44-61.43-52.89-12.83-2.4-25.27-3.61-38.56-3.09-24.51.96-47.17,11.23-63.28,29.48l-12.43,14.09-.19-32.73c-.01-2.27-1.67-4.06-4.18-4.06h-73.86c-2.21,0-4.42,1.52-4.42,4.3v268.5c.02,2.76,2.52,3.95,4.58,3.95l76.78.03c2.92,0,4.92-1.73,4.92-4.86v-139.74c0-11.55,1.31-22.1,4.58-32.76,7.51-24.44,31.11-32.72,54.64-30.51ZM155.08,265.72l-.03,276.86h86.38s.03-276.85.03-276.85h-86.38Z"/>
</svg>
