<?xml version="1.0" encoding="UTF-8"?>
<svg id="Nebraska_N" xmlns="http://www.w3.org/2000/svg" version="1.1" viewBox="0 0 163 152">
  <!-- Generator: Adobe Illustrator 30.2.1, SVG Export Plug-In . SVG Version: 2.1.1 Build 1)  -->
  <defs>
    <style>
      .st0 {
        fill: #e81439;
      }

      .st1 {
        fill: #fff;
      }
    </style>
  </defs>
  <g>
    <path class="st1" d="M159.01,151.2c-1.76,0-3.21-1.44-3.21-3.19s1.42-3.21,3.24-3.21,3.16,1.47,3.16,3.2-1.44,3.2-3.19,3.2Z"/>
    <path class="st0" d="M159.05,144c-2.26,0-4.05,1.77-4.05,4.01s1.81,3.99,4.01,3.99,3.99-1.79,3.99-3.99-1.78-4.01-3.95-4.01ZM159.01,151.2c-1.76,0-3.21-1.44-3.21-3.19s1.42-3.21,3.24-3.21,3.16,1.47,3.16,3.2-1.44,3.2-3.19,3.2Z"/>
    <path class="st0" d="M157.4,145.6h1.41c.58,0,.82.04,1.06.15.4.19.63.62.63,1.13,0,.36-.12.7-.35.95-.14.16-.27.24-.55.38l-.1.05,1.1,2.14h-.8l-1.05-2.04h-.55v2.04h-.8v-4.8ZM158.63,147.7s.27,0,.37-.02c.37-.08.59-.35.59-.76,0-.32-.14-.52-.4-.6-.11-.04-.14-.04-.6-.04h-.39v1.42h.43Z"/>
  </g>
  <g>
    <path class="st0" d="M147,0h-59v45h10v24.78L55.22,2.32l-1.47-2.32H0v45h10v62H0v45h64v-45h-10v-24.78l42.78,67.45,1.47,2.32h53.75v-45h-10v-62h10V0h-5ZM150,5v38h-10v66h10v41h-50.65l-.88-1.39-46.47-73.27v33.67h10v41H2v-41h10V43H2V2h50.65l.88,1.39,46.47,73.28v-33.67h-10V2h60v3Z"/>
    <path class="st1" d="M147,2h-57v41h10v33.67L53.53,3.39l-.88-1.39H2v41h10v66H2v41h60v-41h-10v-33.67l46.47,73.27.88,1.39h50.65v-41h-10V43h10V2h-3ZM59,112h0v35H5v-35h0s7.79,0,10,0V40H5V5h46l52,82.01v-47.01h-10V5h54v35h-10v72h10v35h-46l-52-82v47h10Z"/>
  </g>
  <path class="st0" d="M103,87.01h0S51,5,51,5H5v35h10v72h0c-2.21,0-10,0-10,0v35h54v-35h-10v-47l52,82h46v-35h-10V40h10V5h-54v35h10v47.01Z"/>
</svg>
