<?xml version="1.0" encoding="UTF-8"?>
<svg id="Layer_1" xmlns="http://www.w3.org/2000/svg" version="1.1" viewBox="0 0 382.41 382.41">
  <!-- Generator: Adobe Illustrator 30.2.1, SVG Export Plug-In . SVG Version: 2.1.1 Build 1)  -->
  <defs>
    <style>
      .st0 {
        fill: #e31539;
      }
    </style>
  </defs>
  <circle cx="191.2" cy="191.2" r="191.2"/>
  <g>
    <circle class="st0" cx="191.2" cy="191.2" r="20.06"/>
    <circle class="st0" cx="242.17" cy="191.68" r="14.69"/>
    <circle class="st0" cx="293.13" cy="191.68" r="14.69"/>
    <circle class="st0" cx="344.09" cy="191.68" r="14.69"/>
    <circle class="st0" cx="140.24" cy="191.68" r="14.69"/>
    <circle class="st0" cx="89.28" cy="191.68" r="14.69"/>
    <circle class="st0" cx="38.31" cy="191.68" r="14.69"/>
    <circle class="st0" cx="191.2" cy="242.17" r="14.69"/>
    <circle class="st0" cx="191.2" cy="293.13" r="14.69"/>
    <circle class="st0" cx="191.2" cy="344.09" r="14.69"/>
    <circle class="st0" cx="191.2" cy="140.24" r="14.69"/>
    <circle class="st0" cx="191.2" cy="89.28" r="14.69"/>
    <circle class="st0" cx="191.2" cy="38.31" r="14.69"/>
    <circle class="st0" cx="242.17" cy="242.17" r="11.68"/>
    <circle class="st0" cx="293.13" cy="293.13" r="11.68"/>
    <circle class="st0" cx="89.28" cy="89.28" r="11.68"/>
    <circle class="st0" cx="140.24" cy="140.24" r="11.68"/>
    <circle class="st0" cx="89.28" cy="293.13" r="11.68"/>
    <circle class="st0" cx="140.24" cy="242.17" r="11.68"/>
    <circle class="st0" cx="242.17" cy="140.24" r="11.68"/>
    <circle class="st0" cx="293.13" cy="89.28" r="11.68"/>
    <circle class="st0" cx="89.28" cy="140.24" r="7.51"/>
    <circle class="st0" cx="293.13" cy="140.24" r="7.51"/>
    <circle class="st0" cx="293.13" cy="242.17" r="7.51"/>
    <circle class="st0" cx="89.28" cy="242.17" r="7.51"/>
    <circle class="st0" cx="140.24" cy="89.28" r="7.51"/>
    <circle class="st0" cx="242.17" cy="89.28" r="7.51"/>
    <circle class="st0" cx="242.17" cy="293.13" r="7.51"/>
    <circle class="st0" cx="140.24" cy="293.13" r="7.51"/>
    <circle class="st0" cx="140.24" cy="47.92" r="5.09"/>
    <circle class="st0" cx="47.92" cy="242.17" r="5.09"/>
    <circle class="st0" cx="140.24" cy="334.48" r="5.09"/>
    <circle class="st0" cx="242.17" cy="334.48" r="5.09"/>
    <circle class="st0" cx="334.48" cy="242.17" r="5.09"/>
    <circle class="st0" cx="334.48" cy="140.24" r="5.09"/>
    <circle class="st0" cx="242.17" cy="47.92" r="5.09"/>
    <circle class="st0" cx="47.92" cy="140.24" r="5.09"/>
  </g>
</svg>